<?xml version="1.0" standalone="no"?>
<!DOCTYPE svg PUBLIC "-//W3C//DTD SVG 20010904//EN"
 "http://www.w3.org/TR/2001/REC-SVG-20010904/DTD/svg10.dtd">
<svg version="1.0" xmlns="http://www.w3.org/2000/svg"
 width="711.000000pt" height="734.000000pt" viewBox="0 0 711.000000 734.000000"
 preserveAspectRatio="xMidYMid meet">

<g transform="translate(0.000000,734.000000) scale(0.100000,-0.100000)"
fill="#000000" stroke="none">
<path d="M852 6868 c-8 -8 -12 -56 -12 -160 l0 -148 -124 0 c-118 0 -126 -1
-140 -22 -14 -20 -16 -321 -16 -2994 0 -2815 1 -2973 17 -2993 l18 -22 1805 4
c1930 3 1882 2 2200 53 417 66 793 200 1050 372 181 121 290 225 407 387 28
39 88 108 133 155 95 98 193 240 249 361 193 412 186 956 -16 1364 -147 295
-362 510 -688 686 l-95 50 50 59 c27 33 63 81 81 107 18 26 74 91 124 144 190
199 305 422 366 709 33 153 33 449 0 600 -29 138 -62 233 -117 344 -234 465
-732 772 -1456 896 -327 55 -264 54 -2113 57 -1351 3 -1713 1 -1723 -9z m3574
-51 c305 -37 492 -77 707 -148 321 -107 554 -245 748 -445 185 -192 291 -396
346 -669 25 -125 24 -423 -1 -550 -48 -244 -165 -491 -304 -645 l-41 -45 31
74 c128 310 140 726 32 1050 -184 550 -721 923 -1526 1061 -325 55 -279 54
-1970 57 l-1568 4 0 140 0 140 1708 -4 c1498 -3 1723 -6 1838 -20z m-3594
-3107 c-4 -2613 -3 -2812 12 -2835 l17 -26 1807 4 c1932 3 1884 2 2202 53 395
63 784 197 1020 351 41 27 82 53 90 58 8 5 -8 -18 -36 -51 -276 -319 -710
-529 -1299 -629 -357 -61 -276 -58 -2242 -62 l-1803 -4 0 2976 0 2975 118 0
118 0 -4 -2810z m3324 2787 c304 -37 492 -77 707 -148 321 -107 554 -245 748
-445 185 -192 291 -396 346 -669 25 -125 24 -423 -1 -550 -25 -129 -79 -286
-134 -390 -42 -80 -56 -96 -121 -147 -41 -31 -113 -79 -159 -107 l-85 -51 36
-15 c20 -8 41 -15 46 -15 25 0 20 -24 -10 -51 -71 -62 -179 -141 -258 -189
-78 -46 -82 -50 -60 -59 424 -174 674 -372 854 -676 250 -423 273 -1021 56
-1453 -45 -89 -87 -132 -216 -217 -267 -178 -600 -297 -1019 -365 -339 -55
-269 -54 -2214 -57 l-1804 -4 3 2463 c1 1355 4 2622 7 2816 l5 353 1571 -4
c1371 -3 1588 -6 1702 -20z m1522 -2425 c-7 -11 -28 -36 -46 -56 -28 -32 -36
-36 -58 -29 -25 8 -24 10 42 55 80 54 79 54 62 30z m31 -192 c415 -221 677
-541 781 -955 90 -357 53 -769 -96 -1067 -43 -87 -128 -216 -184 -278 l-40
-45 26 65 c68 170 102 331 110 530 20 448 -130 858 -421 1153 -140 141 -333
274 -522 357 l-82 37 98 66 c53 36 126 93 162 126 35 33 66 60 69 60 3 1 47
-22 99 -49z"/>
<path d="M2540 5466 l0 -166 -135 0 -135 0 0 -570 0 -570 668 0 c711 0 775 4
927 51 196 60 331 174 381 323 13 36 24 51 53 66 53 27 134 102 170 158 96
150 107 378 25 541 -62 123 -189 219 -359 270 -176 52 -194 54 -917 58 l-678
4 0 -165z m1321 113 c326 -33 519 -130 600 -304 65 -138 64 -327 -2 -457 -25
-48 -114 -145 -156 -170 l-29 -17 4 69 c19 326 -193 532 -603 589 -46 7 -279
11 -586 11 l-509 0 0 145 0 145 589 0 c341 0 633 -4 692 -11z m-1321 -709 l0
-390 668 0 c710 0 776 4 925 50 38 12 71 19 74 16 12 -12 -56 -113 -113 -166
-95 -88 -212 -137 -394 -165 -76 -12 -227 -15 -742 -15 l-648 0 0 530 0 530
115 0 115 0 0 -390z m1241 362 c322 -78 473 -255 457 -536 -6 -92 -9 -96 -108
-127 -145 -45 -216 -49 -902 -49 l-648 0 0 371 0 370 558 -4 c523 -3 562 -5
643 -25z"/>
<path d="M2540 3151 l0 -161 -135 0 -135 0 0 -600 0 -600 796 0 c878 0 923 2
1099 61 120 40 188 80 260 154 43 43 70 82 95 136 30 67 40 79 88 110 220 138
298 468 172 725 -59 120 -208 232 -371 278 -168 49 -166 49 -1041 53 l-828 4
0 -160z m1734 96 c250 -51 402 -148 474 -299 68 -143 69 -332 3 -474 -31 -67
-108 -156 -159 -186 l-29 -18 4 88 c6 106 -14 211 -57 298 -59 120 -208 232
-371 278 -164 47 -180 48 -886 53 l-673 4 0 140 0 140 808 -4 c694 -4 818 -6
886 -20z m-1734 -717 l0 -420 798 0 c655 0 815 3 897 15 86 13 191 39 251 62
13 5 9 -9 -16 -56 -61 -114 -194 -211 -350 -255 -149 -43 -220 -46 -1032 -46
l-778 0 0 560 0 560 115 0 115 0 0 -420z m1464 396 c312 -63 477 -200 517
-430 14 -82 6 -233 -13 -252 -23 -22 -160 -62 -269 -78 -90 -14 -229 -16 -883
-16 l-776 0 0 401 0 400 673 -4 c566 -4 685 -7 751 -21z"/>
</g>
</svg>
